<svg width="152" height="24" viewBox="0 0 152 24" fill="none" xmlns="http://www.w3.org/2000/svg">
<path d="M6.09226 4.26855C7.09201 4.26855 7.97461 4.47409 8.74005 4.88515C9.52111 5.28041 10.1303 5.77844 10.5677 6.37923V4.48199H13.2624V17.7626C13.2624 18.9642 13.0124 20.0314 12.5126 20.9642C12.0127 21.9128 11.2863 22.6559 10.3334 23.1935C9.39614 23.731 8.27141 23.9998 6.95923 23.9998C5.20966 23.9998 3.75689 23.5808 2.60093 22.7429C1.89547 22.2411 1.37618 21.6275 1.04307 20.902C0.689485 20.132 1.37304 19.3753 2.2204 19.3753V19.3753C2.84942 19.3753 3.37444 19.8182 3.76711 20.3096C3.97995 20.5759 4.24731 20.81 4.56919 21.0116C5.2409 21.4385 6.03758 21.652 6.95923 21.652C8.03709 21.652 8.90407 21.3199 9.56016 20.6559C10.2319 19.9919 10.5677 19.0274 10.5677 17.7626V15.5808C10.1147 16.1974 9.49767 16.7191 8.71662 17.146C7.95118 17.5571 7.07639 17.7626 6.09226 17.7626C4.96753 17.7626 3.93654 17.478 2.99927 16.9089C2.07762 16.3239 1.34342 15.5176 0.79668 14.4899C0.26556 13.4464 0 12.2686 0 10.9563C0 9.64405 0.26556 8.48199 0.79668 7.47014C1.34342 6.45828 2.07762 5.67567 2.99927 5.12231C3.93654 4.55314 4.96753 4.26855 6.09226 4.26855ZM10.5677 11.0037C10.5677 10.1025 10.3803 9.31994 10.0054 8.65591C9.64607 7.99187 9.16963 7.48595 8.57603 7.13812C7.98242 6.79029 7.34195 6.61638 6.65462 6.61638C5.96729 6.61638 5.32682 6.79029 4.73322 7.13812C4.13961 7.47014 3.65535 7.96816 3.28045 8.63219C2.92116 9.28041 2.74152 10.0551 2.74152 10.9563C2.74152 11.8575 2.92116 12.648 3.28045 13.3278C3.65535 14.0077 4.13961 14.5294 4.73322 14.8931C5.34244 15.2409 5.98291 15.4148 6.65462 15.4148C7.34195 15.4148 7.98242 15.2409 8.57603 14.8931C9.16963 14.5452 9.64607 14.0393 10.0054 13.3753C10.3803 12.6954 10.5677 11.9049 10.5677 11.0037Z" fill="#101828"/>
<path d="M15.8805 10.9563C15.8805 9.64405 16.1461 8.48199 16.6772 7.47014C17.2239 6.45828 17.9581 5.67567 18.8798 5.12231C19.817 4.55314 20.848 4.26855 21.9728 4.26855C22.9881 4.26855 23.8707 4.47409 24.6206 4.88515C25.386 5.28041 25.9952 5.77844 26.4482 6.37923V4.48199H29.1429V17.5492H26.4482V15.6045C25.9952 16.2211 25.3782 16.735 24.5971 17.146C23.8161 17.5571 22.9257 17.7626 21.9259 17.7626C20.8168 17.7626 19.8014 17.478 18.8798 16.9089C17.9581 16.3239 17.2239 15.5176 16.6772 14.4899C16.1461 13.4464 15.8805 12.2686 15.8805 10.9563ZM26.4482 11.0037C26.4482 10.1025 26.2608 9.31994 25.8859 8.65591C25.5266 7.99187 25.0501 7.48595 24.4565 7.13812C23.8629 6.79029 23.2225 6.61638 22.5351 6.61638C21.8478 6.61638 21.2073 6.79029 20.6137 7.13812C20.0201 7.47014 19.5359 7.96816 19.161 8.63219C18.8017 9.28041 18.622 10.0551 18.622 10.9563C18.622 11.8575 18.8017 12.648 19.161 13.3278C19.5359 14.0077 20.0201 14.5294 20.6137 14.8931C21.223 15.2409 21.8634 15.4148 22.5351 15.4148C23.2225 15.4148 23.8629 15.2409 24.4565 14.8931C25.0501 14.5452 25.5266 14.0393 25.8859 13.3753C26.2608 12.6954 26.4482 11.9049 26.4482 11.0037Z" fill="#101828"/>
<path d="M48.2804 4.26855C49.2958 4.26855 50.2018 4.48199 50.9985 4.90887C51.8108 5.33575 52.4435 5.96816 52.8965 6.8061C53.3651 7.64405 53.5994 8.65591 53.5994 9.84168V17.5492H50.9516V10.2448C50.9516 9.07488 50.6626 8.1816 50.0847 7.565C49.5067 6.93259 48.7178 6.61638 47.7181 6.61638C46.7183 6.61638 45.9216 6.93259 45.328 7.565C44.75 8.1816 44.461 9.07488 44.461 10.2448V17.5492H41.8132V10.2448C41.8132 9.07488 41.5243 8.1816 40.9463 7.565C40.3683 6.93259 39.5794 6.61638 38.5797 6.61638C37.5799 6.61638 36.7832 6.93259 36.1896 7.565C35.6116 8.1816 35.3226 9.07488 35.3226 10.2448V17.5492H32.6514V4.48199H35.3226V5.97606C35.76 5.43851 36.3146 5.01954 36.9863 4.71915C37.658 4.41875 38.3766 4.26855 39.142 4.26855C40.173 4.26855 41.0947 4.4899 41.907 4.93259C42.7193 5.37527 43.3441 6.01559 43.7815 6.85353C44.172 6.06302 44.7813 5.43851 45.6092 4.98002C46.4371 4.50571 47.3275 4.26855 48.2804 4.26855Z" fill="#101828"/>
<path d="M68.8315 10.6954C68.8315 11.1856 68.8003 11.6282 68.7378 12.0235H58.873C58.9511 13.067 59.3339 13.9049 60.0212 14.5373C60.7085 15.1697 61.5521 15.4859 62.5518 15.4859C63.989 15.4859 65.0043 14.8773 65.5979 13.6599H68.48C68.0895 14.8614 67.3788 15.8496 66.3478 16.6243C65.3324 17.3832 64.0671 17.7626 62.5518 17.7626C61.3177 17.7626 60.2086 17.4859 59.2245 16.9326C58.256 16.3634 57.4906 15.5729 56.9282 14.561C56.3815 13.5334 56.1081 12.3476 56.1081 11.0037C56.1081 9.65986 56.3736 8.48199 56.9048 7.47014C57.4515 6.44247 58.2091 5.65195 59.1776 5.09859C60.1618 4.54523 61.2865 4.26855 62.5518 4.26855C63.7703 4.26855 64.8559 4.53733 65.8088 5.07488C66.7617 5.61243 67.5037 6.37132 68.0349 7.35156C68.566 8.31599 68.8315 9.43061 68.8315 10.6954ZM66.0432 9.84168C66.0275 8.84563 65.6761 8.04721 64.9887 7.44642C64.3014 6.84563 63.45 6.54523 62.4347 6.54523C61.513 6.54523 60.7241 6.84563 60.0681 7.44642C59.412 8.0314 59.0214 8.82982 58.8965 9.84168H66.0432Z" fill="#101828"/>
<path d="M76.4513 15.1304L81.7373 1.36795C81.9313 0.862946 82.4163 0.529645 82.9573 0.529645V0.529645C83.8837 0.529645 84.516 1.4669 84.1691 2.32592L78.6098 16.092C78.2541 16.9728 77.3993 17.5494 76.4494 17.5494V17.5494C75.4781 17.5494 74.6086 16.9468 74.2678 16.0372L70.6083 6.27287C70.2836 5.40637 70.9242 4.48221 71.8495 4.48221V4.48221C72.4157 4.48221 72.9194 4.84183 73.1032 5.37734L76.4513 15.1304Z" fill="#6941C6"/>
<path d="M96.7941 10.6957C96.7941 11.1858 96.7628 11.6285 96.7004 12.0237H86.8356C86.9137 13.0672 87.2964 13.9051 87.9837 14.5375C88.6711 15.17 89.5146 15.4862 90.5144 15.4862C91.9515 15.4862 92.9669 14.8775 93.5605 13.6601H96.4426C96.0521 14.8617 95.3413 15.8498 94.3103 16.6245C93.2949 17.3834 92.0296 17.7628 90.5144 17.7628C89.2803 17.7628 88.1712 17.4862 87.1871 16.9328C86.2186 16.3636 85.4531 15.5731 84.8907 14.5613C84.344 13.5336 84.0706 12.3478 84.0706 11.004C84.0706 9.66008 84.3362 8.48221 84.8673 7.47036C85.4141 6.44269 86.1717 5.65217 87.1402 5.09881C88.1243 4.54545 89.2491 4.26877 90.5144 4.26877C91.7328 4.26877 92.8185 4.53755 93.7714 5.0751C94.7243 5.61265 95.4663 6.37154 95.9974 7.35178C96.5285 8.31621 96.7941 9.43083 96.7941 10.6957ZM94.0057 9.8419C93.9901 8.84585 93.6386 8.04743 92.9513 7.44664C92.2639 6.84585 91.4126 6.54545 90.3972 6.54545C89.4756 6.54545 88.6867 6.84585 88.0306 7.44664C87.3745 8.03162 86.984 8.83004 86.859 9.8419H94.0057Z" fill="#6941C6"/>
<path d="M105.937 4.26877C106.952 4.26877 107.858 4.48221 108.655 4.90909C109.467 5.33597 110.1 5.96838 110.553 6.80632C111.006 7.64427 111.232 8.65613 111.232 9.8419V17.5494H108.585V10.2451C108.585 9.0751 108.296 8.18182 107.718 7.56522C107.14 6.93281 106.351 6.6166 105.351 6.6166C104.351 6.6166 103.555 6.93281 102.961 7.56522C102.383 8.18182 102.094 9.0751 102.094 10.2451V17.5494H99.4228V4.48221H102.094V5.97628C102.531 5.43873 103.086 5.01976 103.758 4.71937C104.445 4.41897 105.171 4.26877 105.937 4.26877Z" fill="#6941C6"/>
<path d="M113.749 10.9565C113.749 9.64427 114.015 8.48221 114.546 7.47036C115.093 6.4585 115.827 5.67589 116.749 5.12253C117.686 4.55336 118.725 4.26877 119.865 4.26877C120.709 4.26877 121.536 4.4585 122.349 4.83794C123.177 5.20158 123.833 5.6917 124.317 6.3083V0H127.012V17.5494H124.317V15.581C123.88 16.2134 123.27 16.7352 122.489 17.1462C121.724 17.5573 120.841 17.7628 119.842 17.7628C118.717 17.7628 117.686 17.4783 116.749 16.9091C115.827 16.3241 115.093 15.5178 114.546 14.4901C114.015 13.4466 113.749 12.2688 113.749 10.9565ZM124.317 11.004C124.317 10.1028 124.13 9.32016 123.755 8.65613C123.395 7.99209 122.919 7.48617 122.325 7.13834C121.732 6.79051 121.091 6.6166 120.404 6.6166C119.717 6.6166 119.076 6.79051 118.483 7.13834C117.889 7.47036 117.405 7.96838 117.03 8.63241C116.671 9.28063 116.491 10.0553 116.491 10.9565C116.491 11.8577 116.671 12.6482 117.03 13.3281C117.405 14.0079 117.889 14.5296 118.483 14.8933C119.092 15.2411 119.732 15.415 120.404 15.415C121.091 15.415 121.732 15.2411 122.325 14.8933C122.919 14.5455 123.395 14.0395 123.755 13.3755C124.13 12.6957 124.317 11.9051 124.317 11.004Z" fill="#6941C6"/>
<path d="M136.12 17.7628C134.902 17.7628 133.801 17.4862 132.817 16.9328C131.832 16.3636 131.059 15.5731 130.497 14.5613C129.934 13.5336 129.653 12.3478 129.653 11.004C129.653 9.67589 129.942 8.49802 130.52 7.47036C131.098 6.44269 131.887 5.65217 132.887 5.09881C133.887 4.54545 135.004 4.26877 136.238 4.26877C137.472 4.26877 138.589 4.54545 139.588 5.09881C140.588 5.65217 141.377 6.44269 141.955 7.47036C142.533 8.49802 142.822 9.67589 142.822 11.004C142.822 12.332 142.525 13.5099 141.932 14.5375C141.338 15.5652 140.526 16.3636 139.495 16.9328C138.479 17.4862 137.355 17.7628 136.12 17.7628ZM136.12 15.415C136.808 15.415 137.448 15.249 138.042 14.917C138.651 14.585 139.143 14.087 139.518 13.4229C139.893 12.7589 140.08 11.9526 140.08 11.004C140.08 10.0553 139.901 9.25692 139.541 8.6087C139.182 7.94466 138.706 7.44664 138.112 7.11462C137.519 6.78261 136.878 6.6166 136.191 6.6166C135.503 6.6166 134.863 6.78261 134.269 7.11462C133.691 7.44664 133.231 7.94466 132.887 8.6087C132.543 9.25692 132.371 10.0553 132.371 11.004C132.371 12.4111 132.723 13.502 133.426 14.2767C134.144 15.0356 135.043 15.415 136.12 15.415Z" fill="#6941C6"/>
<path d="M148.134 6.37945C148.524 5.71541 149.04 5.20158 149.68 4.83794C150.336 4.4585 151.11 4.26877 152 4.26877V7.06719H151.321C150.274 7.06719 149.477 7.33597 148.93 7.87352C148.399 8.41107 148.134 9.34387 148.134 10.6719V17.5494H145.463V4.48221H148.134V6.37945Z" fill="#6941C6"/>
</svg>
