<svg width="6" height="6" viewBox="0 0 6 6" fill="none" xmlns="http://www.w3.org/2000/svg">
<path d="M5.75365 0.953163C5.94891 0.757901 5.94891 0.441318 5.75365 0.246056C5.55839 0.0507938 5.24181 0.0507938 5.04654 0.246056L5.75365 0.953163ZM0.246544 5.04606C0.0512821 5.24132 0.0512821 5.5579 0.246544 5.75316C0.441806 5.94842 0.758389 5.94842 0.953651 5.75316L0.246544 5.04606ZM0.953651 0.246056C0.758389 0.0507938 0.441806 0.0507938 0.246544 0.246056C0.0512821 0.441318 0.0512821 0.757901 0.246544 0.953163L0.953651 0.246056ZM5.04654 5.75316C5.24181 5.94842 5.55839 5.94842 5.75365 5.75316C5.94891 5.5579 5.94891 5.24132 5.75365 5.04606L5.04654 5.75316ZM5.04654 0.246056L0.246544 5.04606L0.953651 5.75316L5.75365 0.953163L5.04654 0.246056ZM0.246544 0.953163L5.04654 5.75316L5.75365 5.04606L0.953651 0.246056L0.246544 0.953163Z" fill="#7F56D9"/>
</svg>
