<svg width="10" height="6" viewBox="0 0 10 6" fill="none" xmlns="http://www.w3.org/2000/svg">
<path d="M5 5L4.43431 5.56569C4.74673 5.8781 5.25327 5.8781 5.56569 5.56569L5 5ZM9.56569 1.56569C9.8781 1.25327 9.8781 0.746734 9.56569 0.434314C9.25327 0.121895 8.74673 0.121895 8.43431 0.434314L9.56569 1.56569ZM1.56569 0.434315C1.25327 0.121895 0.746734 0.121895 0.434314 0.434315C0.121895 0.746734 0.121895 1.25327 0.434314 1.56569L1.56569 0.434315ZM8.43431 0.434314L4.43431 4.43431L5.56569 5.56569L9.56569 1.56569L8.43431 0.434314ZM5.56569 4.43431L1.56569 0.434315L0.434314 1.56569L4.43431 5.56569L5.56569 4.43431Z" fill="#101828"/>
</svg>
