<svg width="16" height="41" viewBox="0 0 16 41" fill="none" xmlns="http://www.w3.org/2000/svg">
<path d="M8 15L10.0395 18.375L14 19.2016L11.3 22.1141L11.7082 26L8 24.425L4.2918 26L4.7 22.1141L2 19.2016L5.96049 18.375L8 15Z" fill="#DCDEE3"/>
<path d="M8 30L10.0395 33.375L14 34.2016L11.3 37.1141L11.7082 41L8 39.425L4.2918 41L4.7 37.1141L2 34.2016L5.96049 33.375L8 30Z" fill="#FEC84B"/>
<path d="M8 0L10.0395 3.37501L14 4.20163L11.3 7.11411L11.7082 11L8 9.42501L4.2918 11L4.7 7.11411L2 4.20163L5.96049 3.37501L8 0Z" fill="#EAECF0"/>
</svg>
