<svg width="6" height="10" viewBox="0 0 6 10" fill="none" xmlns="http://www.w3.org/2000/svg"><path d="M5 5L5.56569 5.56569C5.71571 5.41566 5.8 5.21217 5.8 5C5.8 4.78783 5.71572 4.58434 5.56569 4.43432L5 5ZM1.56569 0.434315C1.25327 0.121895 0.746735 0.121895 0.434315 0.434315C0.121896 0.746734 0.121896 1.25327 0.434315 1.56569L1.56569 0.434315ZM0.434315 8.43431C0.121895 8.74673 0.121895 9.25327 0.434314 9.56569C0.746734 9.8781 1.25327 9.8781 1.56569 9.56569L0.434315 8.43431ZM0.434315 1.56569L4.43431 5.56569L5.56569 4.43432L1.56569 0.434315L0.434315 1.56569ZM4.43432 4.43431L0.434315 8.43431L1.56569 9.56569L5.56569 5.56569L4.43432 4.43431Z"/></svg>