<svg width="18" height="19" viewBox="0 0 18 19" fill="none" xmlns="http://www.w3.org/2000/svg">
<path d="M9.8 6.3C9.8 5.85817 9.44183 5.5 9 5.5C8.55817 5.5 8.2 5.85817 8.2 6.3H9.8ZM8.2 12.7C8.2 13.1418 8.55817 13.5 9 13.5C9.44183 13.5 9.8 13.1418 9.8 12.7H8.2ZM5.8 8.7C5.35817 8.7 5 9.05817 5 9.5C5 9.94183 5.35817 10.3 5.8 10.3V8.7ZM12.2 10.3C12.6418 10.3 13 9.94183 13 9.5C13 9.05817 12.6418 8.7 12.2 8.7V10.3ZM16.2 9.5C16.2 13.4765 12.9765 16.7 9 16.7V18.3C13.8601 18.3 17.8 14.3601 17.8 9.5H16.2ZM9 16.7C5.02355 16.7 1.8 13.4765 1.8 9.5H0.2C0.2 14.3601 4.13989 18.3 9 18.3V16.7ZM1.8 9.5C1.8 5.52355 5.02355 2.3 9 2.3V0.7C4.13989 0.7 0.2 4.63989 0.2 9.5H1.8ZM9 2.3C12.9765 2.3 16.2 5.52355 16.2 9.5H17.8C17.8 4.63989 13.8601 0.7 9 0.7V2.3ZM8.2 6.3V12.7H9.8V6.3H8.2ZM5.8 10.3H12.2V8.7H5.8V10.3Z" fill="white"/>
</svg>
