<svg width="20" height="18" viewBox="0 0 20 18" fill="none" xmlns="http://www.w3.org/2000/svg">
<path d="M1 0.2C0.558172 0.2 0.2 0.558172 0.2 1C0.2 1.44183 0.558172 1.8 1 1.8V0.2ZM4.27273 1L5.05357 0.825989C4.97205 0.460183 4.64751 0.2 4.27273 0.2V1ZM6.46545 10.8395L7.24981 10.6821C7.2487 10.6765 7.24753 10.671 7.2463 10.6655L6.46545 10.8395ZM8.10182 12.1429V11.3429C8.09676 11.3429 8.09171 11.3429 8.08665 11.343L8.10182 12.1429ZM16.0545 12.1429L16.0697 11.343C16.0647 11.3429 16.0596 11.3429 16.0545 11.3429V12.1429ZM17.6909 10.8395L16.9106 10.6632C16.9092 10.6694 16.9078 10.6757 16.9066 10.6821L17.6909 10.8395ZM19 5.04762L19.7803 5.22399C19.8339 4.98681 19.7767 4.73812 19.6249 4.54817C19.4731 4.35821 19.2432 4.24762 19 4.24762V5.04762ZM5.09091 4.24762C4.64908 4.24762 4.29091 4.60579 4.29091 5.04762C4.29091 5.48945 4.64908 5.84762 5.09091 5.84762V4.24762ZM7.56364 16.1905C7.56364 16.192 7.56349 16.1917 7.56373 16.1911C7.56374 16.1911 7.56318 16.1924 7.56133 16.1942C7.55947 16.196 7.55727 16.1975 7.55509 16.1984C7.55342 16.1991 7.55066 16.2 7.54545 16.2V17.8C8.43111 17.8 9.16364 17.0874 9.16364 16.1905H7.56364ZM7.54545 16.2C7.54025 16.2 7.53749 16.1991 7.53582 16.1984C7.53364 16.1975 7.53143 16.196 7.52958 16.1942C7.52773 16.1924 7.52717 16.1911 7.52717 16.1911C7.52742 16.1917 7.52727 16.192 7.52727 16.1905H5.92727C5.92727 17.0874 6.6598 17.8 7.54545 17.8V16.2ZM7.52727 16.1905C7.52727 16.1889 7.52742 16.1893 7.52717 16.1898C7.52717 16.1899 7.52773 16.1886 7.52958 16.1867C7.53143 16.1849 7.53364 16.1835 7.53582 16.1826C7.53749 16.1819 7.54025 16.181 7.54545 16.181V14.581C6.6598 14.581 5.92727 15.2936 5.92727 16.1905H7.52727ZM7.54545 16.181C7.55066 16.181 7.55342 16.1819 7.55509 16.1826C7.55727 16.1835 7.55948 16.1849 7.56133 16.1867C7.56318 16.1886 7.56374 16.1899 7.56374 16.1898C7.56349 16.1893 7.56364 16.1889 7.56364 16.1905H9.16364C9.16364 15.2936 8.43111 14.581 7.54545 14.581V16.181ZM16.5636 16.1905C16.5636 16.192 16.5635 16.1917 16.5637 16.1911C16.5637 16.1911 16.5632 16.1924 16.5613 16.1942C16.5595 16.196 16.5573 16.1975 16.5551 16.1984C16.5534 16.1991 16.5507 16.2 16.5455 16.2V17.8C17.4311 17.8 18.1636 17.0874 18.1636 16.1905H16.5636ZM16.5455 16.2C16.5403 16.2 16.5375 16.1991 16.5358 16.1984C16.5336 16.1975 16.5314 16.196 16.5296 16.1942C16.5277 16.1924 16.5272 16.1911 16.5272 16.1911C16.5274 16.1917 16.5273 16.192 16.5273 16.1905H14.9273C14.9273 17.0874 15.6598 17.8 16.5455 17.8V16.2ZM16.5273 16.1905C16.5273 16.1889 16.5274 16.1893 16.5272 16.1898C16.5272 16.1899 16.5277 16.1886 16.5296 16.1867C16.5314 16.1849 16.5336 16.1835 16.5358 16.1826C16.5375 16.1819 16.5403 16.181 16.5455 16.181V14.581C15.6598 14.581 14.9273 15.2936 14.9273 16.1905H16.5273ZM16.5455 16.181C16.5507 16.181 16.5534 16.1819 16.5551 16.1826C16.5573 16.1835 16.5595 16.1849 16.5613 16.1867C16.5632 16.1886 16.5637 16.1899 16.5637 16.1898C16.5635 16.1893 16.5636 16.1889 16.5636 16.1905H18.1636C18.1636 15.2936 17.4311 14.581 16.5455 14.581V16.181ZM1 1.8H4.27273V0.2H1V1.8ZM3.49188 1.17401L5.68461 11.0135L7.2463 10.6655L5.05357 0.825989L3.49188 1.17401ZM5.6811 10.997C5.79329 11.5558 6.10023 12.0561 6.54594 12.4111L7.54277 11.1595C7.39016 11.038 7.28725 10.8686 7.24981 10.6821L5.6811 10.997ZM6.54594 12.4111C6.99147 12.7659 7.54762 12.9535 8.11698 12.9427L8.08665 11.343C7.88807 11.3468 7.69556 11.2812 7.54277 11.1595L6.54594 12.4111ZM8.10182 12.9429H16.0545V11.3429H8.10182V12.9429ZM16.0394 12.9427C16.6087 12.9535 17.1649 12.7659 17.6104 12.4111L16.6136 11.1595C16.4608 11.2812 16.2683 11.3468 16.0697 11.343L16.0394 12.9427ZM17.6104 12.4111C18.0561 12.0561 18.3631 11.5558 18.4753 10.997L16.9066 10.6821C16.8691 10.8686 16.7662 11.038 16.6136 11.1595L17.6104 12.4111ZM18.4712 11.0159L19.7803 5.22399L18.2197 4.87125L16.9106 10.6632L18.4712 11.0159ZM19 4.24762H5.09091V5.84762H19V4.24762Z" fill="#101828"/>
</svg>
