<svg width="16" height="16" viewBox="0 0 16 16" fill="none" xmlns="http://www.w3.org/2000/svg">
<path d="M10.4002 7.9998L10.8245 8.42407C11.0588 8.18975 11.0588 7.80986 10.8245 7.57554L10.4002 7.9998ZM7.62446 4.37554C7.39015 4.14123 7.01025 4.14123 6.77593 4.37554C6.54162 4.60986 6.54162 4.98975 6.77593 5.22407L7.62446 4.37554ZM6.77593 10.7755C6.54162 11.0099 6.54162 11.3898 6.77593 11.6241C7.01025 11.8584 7.39014 11.8584 7.62446 11.6241L6.77593 10.7755ZM6.77593 5.22407L9.97593 8.42407L10.8245 7.57554L7.62446 4.37554L6.77593 5.22407ZM9.97593 7.57554L6.77593 10.7755L7.62446 11.6241L10.8245 8.42407L9.97593 7.57554Z" fill="#D0D5DD"/>
</svg>
